<svg width="51" height="51" viewBox="0 0 51 51" fill="none" xmlns="http://www.w3.org/2000/svg">
<path d="M15.7637 25.7126C17.7896 29.8962 21.1725 33.2704 25.3613 35.2856C25.6703 35.4319 26.0121 35.4952 26.353 35.4693C26.6939 35.4434 27.0221 35.3292 27.3055 35.1379L33.4578 31.0282C33.7296 30.8438 34.0437 30.7313 34.3708 30.7012C34.6978 30.6711 35.0272 30.7243 35.3281 30.8559L46.8453 35.8024C47.2389 35.9662 47.5678 36.2549 47.7812 36.624C47.9947 36.9931 48.0809 37.4221 48.0266 37.845C47.6615 40.6941 46.2709 43.3126 44.1148 45.2105C41.9587 47.1084 39.1849 48.1557 36.3125 48.1563C27.436 48.1563 18.9231 44.6301 12.6465 38.3535C6.36991 32.0769 2.84375 23.564 2.84375 14.6876C2.8444 11.8151 3.89165 9.04138 5.78956 6.88529C7.68746 4.7292 10.306 3.33852 13.1551 2.97349C13.578 2.91917 14.007 3.00537 14.3761 3.21881C14.7451 3.43226 15.0338 3.76111 15.1977 4.15474L20.1441 15.6965C20.2728 15.9927 20.3266 16.316 20.3008 16.6378C20.2751 16.9597 20.1706 17.2703 19.9965 17.5422L15.8867 23.793C15.7038 24.0757 15.5964 24.4007 15.5748 24.7367C15.5533 25.0728 15.6183 25.4088 15.7637 25.7126V25.7126Z" stroke="white" stroke-width="3.9375" stroke-linecap="round" stroke-linejoin="round"/>
</svg>
