<svg width="24" height="24" viewBox="0 0 24 24" fill="none" xmlns="http://www.w3.org/2000/svg">
<path d="M15.5799 12.0018C15.5799 13.9818 13.9799 15.5818 11.9999 15.5818C10.0199 15.5818 8.41992 13.9818 8.41992 12.0018C8.41992 10.0218 10.0199 8.42188 11.9999 8.42188C13.9799 8.42188 15.5799 10.0218 15.5799 12.0018Z" stroke="#ED1C24" stroke-width="2" stroke-linecap="round" stroke-linejoin="round"/>
<path d="M11.9998 20.2688C15.5298 20.2688 18.8198 18.1888 21.1098 14.5888C22.0098 13.1788 22.0098 10.8088 21.1098 9.39875C18.8198 5.79875 15.5298 3.71875 11.9998 3.71875C8.46984 3.71875 5.17984 5.79875 2.88984 9.39875C1.98984 10.8088 1.98984 13.1788 2.88984 14.5888C5.17984 18.1888 8.46984 20.2688 11.9998 20.2688Z" stroke="#ED1C24" stroke-width="2" stroke-linecap="round" stroke-linejoin="round"/>
<path d="M16 1L8 23" stroke="#ED1C24" stroke-width="2" stroke-linecap="round"/>
</svg>
