<svg width="38" height="51" viewBox="0 0 38 51" fill="none" xmlns="http://www.w3.org/2000/svg">
<path d="M33.3549 21.2521H33.0185C31.0002 21.2521 29.2342 22.3026 28.3933 24.0803C27.216 26.5045 28.3092 29.3327 30.8321 30.464L31.3366 30.7064L31.4207 30.868V31.0297V31.1913C30.748 34.0195 28.141 35.9589 25.1136 35.9589C23.8521 35.9589 22.5066 35.9589 21.1611 35.9589H15.4426C15.3585 35.9589 15.2744 35.9589 15.1903 35.9589H14.938V31.0297H15.1062C20.6565 30.3024 24.9454 26.0197 25.45 20.6864C25.8704 16.9693 26.2909 13.0906 26.7955 8.88871C27.3 5.97967 25.534 3.15145 22.5907 2.34339C22.2543 2.26258 22.0861 2.02016 22.0861 1.69693C22.0861 1.2929 22.0861 0.969676 22.0861 0.565644V0.242419H19.3951V6.46451H22.0861V4.76758H22.3384L22.6748 5.0908C22.843 5.25242 23.0953 5.41403 23.2635 5.57564C23.9362 6.38371 24.1885 7.515 24.0203 8.56548C23.9362 9.53516 23.768 10.424 23.6839 11.3937L23.5158 12.8482L23.2635 15.2724C23.0953 17.131 22.843 19.0703 22.5907 20.9289C21.8339 25.2116 18.0496 28.3631 13.5084 28.2822C13.0879 28.2822 12.5834 28.2822 12.1629 28.2014C7.78994 27.6358 4.42612 24.0803 4.17384 19.8784C4.00565 17.8582 3.75336 15.7572 3.50108 13.7371C3.41698 12.8482 3.24879 11.9593 3.16469 10.9897L3.0806 10.02C2.9965 9.29274 2.91241 8.64629 2.82831 7.91903C2.66012 6.54532 3.41698 5.33322 4.67841 4.76758L4.9307 4.68677V6.22209H7.62175V0H4.9307V0.323225C4.9307 0.646451 4.9307 1.05048 4.9307 1.37371C5.01479 1.69693 4.76251 2.02016 4.34203 2.10097C1.48279 2.98984 -0.283213 5.65645 0.137263 8.56548C0.305454 9.85838 0.473644 11.2321 0.55774 12.525L0.810025 14.5452C0.89412 15.1916 0.978216 15.8381 0.978216 16.5653C1.14641 18.1006 1.3146 19.636 1.48279 21.1713C2.23965 26.1005 6.19213 29.9792 11.3219 30.7872H11.406C11.7424 30.868 11.9106 31.1105 11.9106 31.4337C11.9106 32.2418 11.9106 33.0498 11.9106 33.9387V35.3124C11.9106 35.3932 11.9106 35.474 11.9106 35.6356V35.9589H7.28536C3.83746 35.9589 0.810026 38.3022 0.137263 41.6153C-0.535499 44.9284 1.3146 48.2414 4.59431 49.5343C5.01479 49.6959 5.51936 49.8576 5.93984 49.9384L6.52851 50.1H8.21041H8.29451L8.54679 50.0192C11.8265 49.5343 14.2653 46.9485 14.6017 43.7971C14.6858 42.8274 14.6858 41.7769 14.6858 40.8072V38.6255H21.1611C22.5066 38.6255 23.768 38.6255 25.1136 38.6255C29.4865 38.5447 33.1867 35.5548 33.9436 31.4337C33.9436 31.1105 34.28 30.7872 34.6163 30.7064C36.5505 30.06 37.8961 28.363 37.9802 26.4237C38.2324 23.5955 36.046 21.3329 33.3549 21.2521ZM11.9947 43.6355C11.6583 45.8172 9.72413 47.3526 7.45355 47.3526H7.20127C4.8466 47.1909 2.9965 45.4132 2.82831 43.2314C2.82831 43.1506 2.82831 43.1506 2.82831 43.0698C2.74422 40.7264 4.59432 38.7063 7.11718 38.5447C7.62175 38.4639 8.21041 38.4639 8.88317 38.4639H10.3128H11.7424H11.9106V38.6255C11.9106 39.1103 11.9106 39.676 11.9106 40.1608C12.0788 41.3729 12.0788 42.5042 11.9947 43.6355ZM32.7662 28.2822C31.5048 28.2822 30.4957 27.2318 30.4957 26.0197C30.4957 24.8076 31.5889 23.8379 32.8503 23.8379C33.439 23.8379 34.0277 24.0803 34.4482 24.4843C34.8686 24.8884 35.1209 25.5348 35.1209 26.1005C35.0368 27.3934 34.0277 28.2822 32.7662 28.2822Z" fill="white"/>
</svg>
