<svg width="50" height="50" viewBox="0 0 50 50" fill="none" xmlns="http://www.w3.org/2000/svg">
<path d="M49 27C49 24.243 46.757 22 44 22H42V19C42 9.626 34.374 2 25 2C15.626 2 8 9.626 8 19V22H6C3.243 22 1 24.243 1 27V33C1 35.757 3.243 38 6 38H12V22H10V19C10 10.729 16.729 4 25 4C33.271 4 40 10.729 40 19V22H38V38H40V43C40 44.654 38.654 46 37 46H27V48H37C39.757 48 42 45.757 42 43V38H44C46.757 38 49 35.757 49 33V27ZM10 36H6C4.346 36 3 34.654 3 33V27C3 25.346 4.346 24 6 24H10V36ZM47 33C47 34.654 45.654 36 44 36H40V24H44C45.654 24 47 25.346 47 27V33Z" fill="white"/>
</svg>
