<svg width="59" height="59" viewBox="0 0 59 59" fill="none" xmlns="http://www.w3.org/2000/svg">
<path d="M24.8906 33.1875H9.21875C8.72976 33.1875 8.26079 32.9932 7.91502 32.6475C7.56925 32.3017 7.375 31.8327 7.375 31.3438V16.5938C7.375 16.1048 7.56925 15.6358 7.91502 15.29C8.26079 14.9443 8.72976 14.75 9.21875 14.75H23.0469C23.5359 14.75 24.0048 14.9443 24.3506 15.29C24.6964 15.6358 24.8906 16.1048 24.8906 16.5938V36.875C24.8906 39.32 23.9194 41.6648 22.1905 43.3936C20.4617 45.1225 18.1168 46.0938 15.6719 46.0938" stroke="#474747" stroke-width="3.6875" stroke-linecap="round" stroke-linejoin="round"/>
<path d="M51.625 33.1875H35.9531C35.4641 33.1875 34.9952 32.9932 34.6494 32.6475C34.3036 32.3017 34.1094 31.8327 34.1094 31.3438V16.5938C34.1094 16.1048 34.3036 15.6358 34.6494 15.29C34.9952 14.9443 35.4641 14.75 35.9531 14.75H49.7812C50.2702 14.75 50.7392 14.9443 51.085 15.29C51.4307 15.6358 51.625 16.1048 51.625 16.5938V36.875C51.625 39.32 50.6537 41.6648 48.9249 43.3936C47.196 45.1225 44.8512 46.0938 42.4062 46.0938" stroke="#474747" stroke-width="3.6875" stroke-linecap="round" stroke-linejoin="round"/>
</svg>
