<svg width="35" height="35" viewBox="0 0 35 35" fill="none" xmlns="http://www.w3.org/2000/svg">
<path d="M28.7526 4.90818L3.26819 12.0859C3.05126 12.1452 2.85788 12.27 2.7144 12.4431C2.57092 12.6163 2.48431 12.8295 2.46637 13.0537C2.44844 13.2779 2.50005 13.5022 2.61417 13.696C2.72829 13.8897 2.89938 14.0436 3.10413 14.1367L14.8073 19.6738C15.0365 19.78 15.2206 19.9641 15.3268 20.1933L20.8639 31.8965C20.9569 32.1012 21.1108 32.2723 21.3046 32.3864C21.4984 32.5005 21.7227 32.5521 21.9469 32.5342C22.1711 32.5163 22.3843 32.4297 22.5574 32.2862C22.7306 32.1427 22.8554 31.9493 22.9147 31.7324L30.0924 6.24802C30.1468 6.06205 30.1502 5.86487 30.1021 5.67716C30.0541 5.48944 29.9565 5.3181 29.8195 5.18109C29.6825 5.04409 29.5111 4.94646 29.3234 4.89844C29.1357 4.85042 28.9385 4.85378 28.7526 4.90818V4.90818Z" stroke="white" stroke-width="2" stroke-linecap="round" stroke-linejoin="round"/>
<path d="M15.1621 19.8379L21.3418 13.6582" stroke="white" stroke-width="2" stroke-linecap="round" stroke-linejoin="round"/>
</svg>
